<svg version="1.1" xmlns="http://www.w3.org/2000/svg" xmlns:xlink="http://www.w3.org/1999/xlink" width="1771.9912109375" height="1124"><defs/><g><g transform="translate(-94,-14) scale(1,1)"><rect fill="#C0C0C0" stroke="none" x="263" y="31" width="1320" height="1104" opacity="0.2"/></g><g transform="translate(-94,-14) scale(1,1)"><rect fill="#ffffff" stroke="none" x="256" y="24" width="1320" height="1104"/></g><g transform="translate(-94,-14) scale(1,1)"><path fill="none" stroke="#000000" d="M 256 24 L 1576 24 L 1576 1128 L 256 1128 L 256 24 Z Z" stroke-miterlimit="10"/></g><g transform="translate(-94,-14) scale(1,1)"><g><path fill="none" stroke="none"/><text fill="#000000" stroke="none" font-family="Arial" font-size="13px" font-style="normal" font-weight="bold" text-decoration="none" x="755.02978515625" y="43.5">Ứng dựng quản lý cửa hàng bán quần và áo Customize</text></g></g><g transform="translate(-94,-14) scale(1,1)"><rect fill="#C0C0C0" stroke="none" x="327" y="79" width="488" height="224" opacity="0.2"/></g><g transform="translate(-94,-14) scale(1,1)"><rect fill="#ffffff" stroke="none" x="320" y="72" width="488" height="224"/></g><g transform="translate(-94,-14) scale(1,1)"><path fill="none" stroke="#000000" d="M 320 72 L 808 72 L 808 296 L 320 296 L 320 72 Z Z" stroke-miterlimit="10"/></g><g transform="translate(-94,-14) scale(1,1)"><g><path fill="none" stroke="none"/><text fill="#000000" stroke="none" font-family="Arial" font-size="13px" font-style="normal" font-weight="bold" text-decoration="none" x="516.675048828125" y="91.5">Use case Admin</text></g></g><g transform="translate(-94,-14) scale(1,1)"><rect fill="#C0C0C0" stroke="none" x="335" y="359" width="480" height="720" opacity="0.2"/></g><g transform="translate(-94,-14) scale(1,1)"><rect fill="#ffffff" stroke="none" x="328" y="352" width="480" height="720"/></g><g transform="translate(-94,-14) scale(1,1)"><path fill="none" stroke="#000000" d="M 328 352 L 808 352 L 808 1072 L 328 1072 L 328 352 Z Z" stroke-miterlimit="10"/></g><g transform="translate(-94,-14) scale(1,1)"><g><path fill="none" stroke="none"/><text fill="#000000" stroke="none" font-family="Arial" font-size="13px" font-style="normal" font-weight="bold" text-decoration="none" x="499.3310546875" y="371.5">Use case chủ cửa hàng</text></g></g><g transform="translate(-94,-14) scale(1,1)"><rect fill="#C0C0C0" stroke="none" x="1023" y="103" width="472" height="368" opacity="0.2"/></g><g transform="translate(-94,-14) scale(1,1)"><rect fill="#ffffff" stroke="none" x="1016" y="96" width="472" height="368"/></g><g transform="translate(-94,-14) scale(1,1)"><path fill="none" stroke="#000000" d="M 1016 96 L 1488 96 L 1488 464 L 1016 464 L 1016 96 Z Z" stroke-miterlimit="10"/></g><g transform="translate(-94,-14) scale(1,1)"><g><path fill="none" stroke="none"/><text fill="#000000" stroke="none" font-family="Arial" font-size="13px" font-style="normal" font-weight="bold" text-decoration="none" x="1165.33544921875" y="115.5">Use case người dùng vãng lai</text></g></g><g transform="translate(-94,-14) scale(1,1)"><rect fill="#C0C0C0" stroke="none" x="983" y="495" width="544" height="592" opacity="0.2"/></g><g transform="translate(-94,-14) scale(1,1)"><rect fill="#ffffff" stroke="none" x="976" y="488" width="544" height="592"/></g><g transform="translate(-94,-14) scale(1,1)"><path fill="none" stroke="#000000" d="M 976 488 L 1520 488 L 1520 1080 L 976 1080 L 976 488 Z Z" stroke-miterlimit="10"/></g><g transform="translate(-94,-14) scale(1,1)"><g><path fill="none" stroke="none"/><text fill="#000000" stroke="none" font-family="Arial" font-size="13px" font-style="normal" font-weight="bold" text-decoration="none" x="1148.687744140625" y="507.5">Use case người dùng có tài khoản</text></g></g><g transform="translate(-94,-14) scale(1,1)"><path fill="#ffffff" stroke="none" d="M 151.53068821022728 289.68 C 151.53068821022728 284.886167936 155.41653053517274 281 160.2099609375 281 C 165.00339133982726 281 168.88923366477272 284.886167936 168.88923366477272 289.68 C 168.88923366477272 294.473832064 165.00339133982726 298.36 160.2099609375 298.36 C 155.41653053517274 298.36 151.53068821022728 294.473832064 151.53068821022728 289.68 Z"/></g><g transform="translate(-94,-14) scale(1,1)"><path fill="none" stroke="#000000" d="M 151.53068821022728 289.68 C 151.53068821022728 284.886167936 155.41653053517274 281 160.2099609375 281 C 165.00339133982726 281 168.88923366477272 284.886167936 168.88923366477272 289.68 C 168.88923366477272 294.473832064 165.00339133982726 298.36 160.2099609375 298.36 C 155.41653053517274 298.36 151.53068821022728 294.473832064 151.53068821022728 289.68 Z" stroke-miterlimit="10"/></g><g transform="translate(-94,-14) scale(1,1)"><path fill="none" stroke="#000000" d="M 160.2099609375 298.36 L 160.2099609375 315.64" stroke-miterlimit="10"/></g><g transform="translate(-94,-14) scale(1,1)"><path fill="none" stroke="#000000" d="M 151.02014275568183 304.84 L 169.39977911931817 304.84" stroke-miterlimit="10"/></g><g transform="translate(-94,-14) scale(1,1)"><path fill="none" stroke="#000000" d="M 160.2099609375 315.64 L 147.44632457386365 333" stroke-miterlimit="10"/></g><g transform="translate(-94,-14) scale(1,1)"><path fill="none" stroke="#000000" d="M 160.2099609375 315.64 L 172.97359730113635 333" stroke-miterlimit="10"/></g><g transform="translate(-94,-14) scale(1,1)"><g><path fill="none" stroke="none"/><text fill="#000000" stroke="none" font-family="Arial" font-size="13px" font-style="normal" font-weight="bold" text-decoration="none" x="141.785888671875" y="353.5">Admin</text></g></g><g transform="translate(-94,-14) scale(1,1)"><path fill="#ffffff" stroke="none" d="M 143.53068821022728 777.6800000000001 C 143.53068821022728 772.8861679360001 147.41653053517274 769 152.2099609375 769 C 157.00339133982726 769 160.88923366477272 772.8861679360001 160.88923366477272 777.6800000000001 C 160.88923366477272 782.473832064 157.00339133982726 786.36 152.2099609375 786.36 C 147.41653053517274 786.36 143.53068821022728 782.473832064 143.53068821022728 777.6800000000001 Z"/></g><g transform="translate(-94,-14) scale(1,1)"><path fill="none" stroke="#000000" d="M 143.53068821022728 777.6800000000001 C 143.53068821022728 772.8861679360001 147.41653053517274 769 152.2099609375 769 C 157.00339133982726 769 160.88923366477272 772.8861679360001 160.88923366477272 777.6800000000001 C 160.88923366477272 782.473832064 157.00339133982726 786.36 152.2099609375 786.36 C 147.41653053517274 786.36 143.53068821022728 782.473832064 143.53068821022728 777.6800000000001 Z" stroke-miterlimit="10"/></g><g transform="translate(-94,-14) scale(1,1)"><path fill="none" stroke="#000000" d="M 152.2099609375 786.36 L 152.2099609375 803.64" stroke-miterlimit="10"/></g><g transform="translate(-94,-14) scale(1,1)"><path fill="none" stroke="#000000" d="M 143.02014275568183 792.84 L 161.39977911931817 792.84" stroke-miterlimit="10"/></g><g transform="translate(-94,-14) scale(1,1)"><path fill="none" stroke="#000000" d="M 152.2099609375 803.64 L 139.44632457386365 821" stroke-miterlimit="10"/></g><g transform="translate(-94,-14) scale(1,1)"><path fill="none" stroke="#000000" d="M 152.2099609375 803.64 L 164.97359730113635 821" stroke-miterlimit="10"/></g><g transform="translate(-94,-14) scale(1,1)"><g><path fill="none" stroke="none"/><text fill="#000000" stroke="none" font-family="Arial" font-size="13px" font-style="normal" font-weight="bold" text-decoration="none" x="110.997802734375" y="841.5">Chủ cửa hàng</text></g></g><g transform="translate(-94,-14) scale(1,1)"><path fill="#ffffff" stroke="none" d="M 1721.0367917258523 769.6800000000001 C 1721.0367917258523 764.8861679360001 1724.9226340507978 761 1729.716064453125 761 C 1734.5094948554522 761 1738.3953371803977 764.8861679360001 1738.3953371803977 769.6800000000001 C 1738.3953371803977 774.473832064 1734.5094948554522 778.36 1729.716064453125 778.36 C 1724.9226340507978 778.36 1721.0367917258523 774.473832064 1721.0367917258523 769.6800000000001 Z"/></g><g transform="translate(-94,-14) scale(1,1)"><path fill="none" stroke="#000000" d="M 1721.0367917258523 769.6800000000001 C 1721.0367917258523 764.8861679360001 1724.9226340507978 761 1729.716064453125 761 C 1734.5094948554522 761 1738.3953371803977 764.8861679360001 1738.3953371803977 769.6800000000001 C 1738.3953371803977 774.473832064 1734.5094948554522 778.36 1729.716064453125 778.36 C 1724.9226340507978 778.36 1721.0367917258523 774.473832064 1721.0367917258523 769.6800000000001 Z" stroke-miterlimit="10"/></g><g transform="translate(-94,-14) scale(1,1)"><path fill="none" stroke="#000000" d="M 1729.716064453125 778.36 L 1729.716064453125 795.64" stroke-miterlimit="10"/></g><g transform="translate(-94,-14) scale(1,1)"><path fill="none" stroke="#000000" d="M 1720.5262462713067 784.84 L 1738.9058826349433 784.84" stroke-miterlimit="10"/></g><g transform="translate(-94,-14) scale(1,1)"><path fill="none" stroke="#000000" d="M 1729.716064453125 795.64 L 1716.9524280894886 813" stroke-miterlimit="10"/></g><g transform="translate(-94,-14) scale(1,1)"><path fill="none" stroke="#000000" d="M 1729.716064453125 795.64 L 1742.4797008167614 813" stroke-miterlimit="10"/></g><g transform="translate(-94,-14) scale(1,1)"><g><path fill="none" stroke="none"/><text fill="#000000" stroke="none" font-family="Arial" font-size="13px" font-style="normal" font-weight="bold" text-decoration="none" x="1658.2255859375" y="833.5">Người dùng có tài khoản</text></g></g><g transform="translate(-94,-14) scale(1,1)"><path fill="#ffffff" stroke="none" d="M 1779.3163327414773 265.68 C 1779.3163327414773 260.886167936 1783.2021750664228 257 1787.99560546875 257 C 1792.7890358710772 257 1796.6748781960227 260.886167936 1796.6748781960227 265.68 C 1796.6748781960227 270.473832064 1792.7890358710772 274.36 1787.99560546875 274.36 C 1783.2021750664228 274.36 1779.3163327414773 270.473832064 1779.3163327414773 265.68 Z"/></g><g transform="translate(-94,-14) scale(1,1)"><path fill="none" stroke="#000000" d="M 1779.3163327414773 265.68 C 1779.3163327414773 260.886167936 1783.2021750664228 257 1787.99560546875 257 C 1792.7890358710772 257 1796.6748781960227 260.886167936 1796.6748781960227 265.68 C 1796.6748781960227 270.473832064 1792.7890358710772 274.36 1787.99560546875 274.36 C 1783.2021750664228 274.36 1779.3163327414773 270.473832064 1779.3163327414773 265.68 Z" stroke-miterlimit="10"/></g><g transform="translate(-94,-14) scale(1,1)"><path fill="none" stroke="#000000" d="M 1787.99560546875 274.36 L 1787.99560546875 291.64" stroke-miterlimit="10"/></g><g transform="translate(-94,-14) scale(1,1)"><path fill="none" stroke="#000000" d="M 1778.8057872869317 280.84 L 1797.1854236505683 280.84" stroke-miterlimit="10"/></g><g transform="translate(-94,-14) scale(1,1)"><path fill="none" stroke="#000000" d="M 1787.99560546875 291.64 L 1775.2319691051136 309" stroke-miterlimit="10"/></g><g transform="translate(-94,-14) scale(1,1)"><path fill="none" stroke="#000000" d="M 1787.99560546875 291.64 L 1800.7592418323864 309" stroke-miterlimit="10"/></g><g transform="translate(-94,-14) scale(1,1)"><g><path fill="none" stroke="none"/><text fill="#000000" stroke="none" font-family="Arial" font-size="13px" font-style="normal" font-weight="bold" text-decoration="none" x="1729.15283203125" y="329.5">Người dùng vãng lai</text></g></g><g transform="translate(-94,-14) scale(1,1)"><path fill="#C0C0C0" stroke="none" d="M 423 640 C 423 630.6111584 478.2928272 623 546.5 623 C 614.7071728 623 670 630.6111584 670 640 C 670 649.3888416 614.7071728 657 546.5 657 C 478.2928272 657 423 649.3888416 423 640 Z" opacity="0.2"/></g><g transform="translate(-94,-14) scale(1,1)"><path fill="#ffffff" stroke="none" d="M 416 633 C 416 623.6111584 471.2928272 616 539.5 616 C 607.7071728 616 663 623.6111584 663 633 C 663 642.3888416 607.7071728 650 539.5 650 C 471.2928272 650 416 642.3888416 416 633 Z"/></g><g transform="translate(-94,-14) scale(1,1)"><path fill="none" stroke="#000000" d="M 416 633 C 416 623.6111584 471.2928272 616 539.5 616 C 607.7071728 616 663 623.6111584 663 633 C 663 642.3888416 607.7071728 650 539.5 650 C 471.2928272 650 416 642.3888416 416 633 Z" stroke-miterlimit="10"/></g><g transform="translate(-94,-14) scale(1,1)"><g><path fill="none" stroke="none"/><text fill="#000000" stroke="none" font-family="Arial" font-size="13px" font-style="normal" font-weight="bold" text-decoration="none" x="461.81103515625" y="640">Quản lý biến thể sản phẩm</text></g></g><g transform="translate(-94,-14) scale(1,1)"><path fill="#C0C0C0" stroke="none" d="M 415 776 C 415 766.6111584 452.1603616 759 498 759 C 543.8396384 759 581 766.6111584 581 776 C 581 785.3888416 543.8396384 793 498 793 C 452.1603616 793 415 785.3888416 415 776 Z" opacity="0.2"/></g><g transform="translate(-94,-14) scale(1,1)"><path fill="#ffffff" stroke="none" d="M 408 769 C 408 759.6111584 445.1603616 752 491 752 C 536.8396384 752 574 759.6111584 574 769 C 574 778.3888416 536.8396384 786 491 786 C 445.1603616 786 408 778.3888416 408 769 Z"/></g><g transform="translate(-94,-14) scale(1,1)"><path fill="none" stroke="#000000" d="M 408 769 C 408 759.6111584 445.1603616 752 491 752 C 536.8396384 752 574 759.6111584 574 769 C 574 778.3888416 536.8396384 786 491 786 C 445.1603616 786 408 778.3888416 408 769 Z" stroke-miterlimit="10"/></g><g transform="translate(-94,-14) scale(1,1)"><g><path fill="none" stroke="none"/><text fill="#000000" stroke="none" font-family="Arial" font-size="13px" font-style="normal" font-weight="bold" text-decoration="none" x="440.412353515625" y="776">Quản lý tài khoản</text></g></g><g transform="translate(-94,-14) scale(1,1)"><path fill="#C0C0C0" stroke="none" d="M 447 960 C 447 950.6111584 486.8466528 943 536 943 C 585.1533472 943 625 950.6111584 625 960 C 625 969.3888416 585.1533472 977 536 977 C 486.8466528 977 447 969.3888416 447 960 Z" opacity="0.2"/></g><g transform="translate(-94,-14) scale(1,1)"><path fill="#ffffff" stroke="none" d="M 440 953 C 440 943.6111584 479.8466528 936 529 936 C 578.1533472 936 618 943.6111584 618 953 C 618 962.3888416 578.1533472 970 529 970 C 479.8466528 970 440 962.3888416 440 953 Z"/></g><g transform="translate(-94,-14) scale(1,1)"><path fill="none" stroke="#000000" d="M 440 953 C 440 943.6111584 479.8466528 936 529 936 C 578.1533472 936 618 943.6111584 618 953 C 618 962.3888416 578.1533472 970 529 970 C 479.8466528 970 440 962.3888416 440 953 Z" stroke-miterlimit="10"/></g><g transform="translate(-94,-14) scale(1,1)"><g><path fill="none" stroke="none"/><text fill="#000000" stroke="none" font-family="Arial" font-size="13px" font-style="normal" font-weight="bold" text-decoration="none" x="474.0673828125" y="960">Quản lý nhập hàng</text></g></g><g transform="translate(-94,-14) scale(1,1)"><path fill="#ffffff" stroke="none" d="M 448 840 L 549 840 L 559 850 L 559 910 L 448 910 L 448 840"/></g><g transform="translate(-94,-14) scale(1,1)"><path fill="none" stroke="#000000" d="M 448 840 L 549 840 L 559 850 L 559 910 L 448 910 L 448 840 L 448 840" stroke-miterlimit="10"/></g><g transform="translate(-94,-14) scale(1,1)"><path fill="none" stroke="#000000" d="M 549 840 L 549 850 L 559 850 L 549 840" stroke-miterlimit="10"/></g><g transform="translate(-94,-14) scale(1,1)"><g><path fill="none" stroke="none"/><text fill="#000000" stroke="none" font-family="Arial" font-size="13px" font-style="normal" font-weight="normal" text-decoration="none" x="453" y="858">Quản lý đợt giá</text><text fill="#000000" stroke="none" font-family="Arial" font-size="13px" font-style="normal" font-weight="normal" text-decoration="none" x="453" y="871">nhập các sản</text><text fill="#000000" stroke="none" font-family="Arial" font-size="13px" font-style="normal" font-weight="normal" text-decoration="none" x="453" y="884">phẩm áo thô</text><text fill="#000000" stroke="none" font-family="Arial" font-size="13px" font-style="normal" font-weight="normal" text-decoration="none" x="453" y="897">nhập</text></g></g><g transform="translate(-94,-14) scale(1,1)"><path fill="none" stroke="#000000" d="M 523 935 L 516 912" stroke-miterlimit="10" stroke-dasharray="3"/></g><g transform="translate(-94,-14) scale(1,1)"><path fill="#C0C0C0" stroke="none" d="M 431 1048 C 431 1038.6111584 496.1425616 1031 576.5 1031 C 656.8574384 1031 722 1038.6111584 722 1048 C 722 1057.3888416 656.8574384 1065 576.5 1065 C 496.1425616 1065 431 1057.3888416 431 1048 Z" opacity="0.2"/></g><g transform="translate(-94,-14) scale(1,1)"><path fill="#ffffff" stroke="none" d="M 424 1041 C 424 1031.6111584 489.1425616 1024 569.5 1024 C 649.8574384 1024 715 1031.6111584 715 1041 C 715 1050.3888416 649.8574384 1058 569.5 1058 C 489.1425616 1058 424 1050.3888416 424 1041 Z"/></g><g transform="translate(-94,-14) scale(1,1)"><path fill="none" stroke="#000000" d="M 424 1041 C 424 1031.6111584 489.1425616 1024 569.5 1024 C 649.8574384 1024 715 1031.6111584 715 1041 C 715 1050.3888416 649.8574384 1058 569.5 1058 C 489.1425616 1058 424 1050.3888416 424 1041 Z" stroke-miterlimit="10"/></g><g transform="translate(-94,-14) scale(1,1)"><g><path fill="none" stroke="none"/><text fill="#000000" stroke="none" font-family="Arial" font-size="13px" font-style="normal" font-weight="bold" text-decoration="none" x="477.735107421875" y="1048">Quản lý khuyến mại &amp; tích điểm</text></g></g><g transform="translate(-94,-14) scale(1,1)"><path fill="#C0C0C0" stroke="none" d="M 407 704 C 407 694.6111584 444.1603616 687 490 687 C 535.8396384 687 573 694.6111584 573 704 C 573 713.3888416 535.8396384 721 490 721 C 444.1603616 721 407 713.3888416 407 704 Z" opacity="0.2"/></g><g transform="translate(-94,-14) scale(1,1)"><path fill="#ffffff" stroke="none" d="M 400 697 C 400 687.6111584 437.1603616 680 483 680 C 528.8396384 680 566 687.6111584 566 697 C 566 706.3888416 528.8396384 714 483 714 C 437.1603616 714 400 706.3888416 400 697 Z"/></g><g transform="translate(-94,-14) scale(1,1)"><path fill="none" stroke="#000000" d="M 400 697 C 400 687.6111584 437.1603616 680 483 680 C 528.8396384 680 566 687.6111584 566 697 C 566 706.3888416 528.8396384 714 483 714 C 437.1603616 714 400 706.3888416 400 697 Z" stroke-miterlimit="10"/></g><g transform="translate(-94,-14) scale(1,1)"><g><path fill="none" stroke="none"/><text fill="#000000" stroke="none" font-family="Arial" font-size="13px" font-style="normal" font-weight="bold" text-decoration="none" x="432.406005859375" y="704">Báo cáo thông kê</text></g></g><g transform="translate(-94,-14) scale(1,1)"><path fill="none" stroke="#000000" d="M 201 785 L 499 651" stroke-miterlimit="10"/></g><g transform="translate(-94,-14) scale(1,1)"><path fill="none" stroke="#000000" d="M 201 801 L 407 778" stroke-miterlimit="10"/></g><g transform="translate(-94,-14) scale(1,1)"><path fill="none" stroke="#000000" d="M 201 826 L 483 935" stroke-miterlimit="10"/></g><g transform="translate(-94,-14) scale(1,1)"><path fill="none" stroke="#000000" d="M 201 835 L 537 1023" stroke-miterlimit="10"/></g><g transform="translate(-94,-14) scale(1,1)"><path fill="none" stroke="#000000" d="M 201 791 L 429 715" stroke-miterlimit="10"/></g><g transform="translate(-94,-14) scale(1,1)"><path fill="none" stroke="#000000" d="M 159 360 L 153 767" stroke-miterlimit="10"/></g><g transform="translate(-94,-14) scale(1,1)"><path fill="#FFFFFF" stroke="none" d="M 144.8814832316227 746.5527584872292 L 153 767 L 161.717724870143 746.8009586096645"/></g><g transform="translate(-94,-14) scale(1,1)"><path fill="none" stroke="#000000" d="M 144.8814832316227 746.5527584872292 L 153 767 L 161.717724870143 746.8009586096645 L 144.8814832316227 746.5527584872292" stroke-miterlimit="10"/></g><g transform="translate(-94,-14) scale(1,1)"><path fill="#C0C0C0" stroke="none" d="M 391 160 C 391 150.6111584 470.0217328 143 567.5 143 C 664.9782672 143 744 150.6111584 744 160 C 744 169.3888416 664.9782672 177 567.5 177 C 470.0217328 177 391 169.3888416 391 160 Z" opacity="0.2"/></g><g transform="translate(-94,-14) scale(1,1)"><path fill="#ffffff" stroke="none" d="M 384 153 C 384 143.6111584 463.0217328 136 560.5 136 C 657.9782672 136 737 143.6111584 737 153 C 737 162.3888416 657.9782672 170 560.5 170 C 463.0217328 170 384 162.3888416 384 153 Z"/></g><g transform="translate(-94,-14) scale(1,1)"><path fill="none" stroke="#000000" d="M 384 153 C 384 143.6111584 463.0217328 136 560.5 136 C 657.9782672 136 737 143.6111584 737 153 C 737 162.3888416 657.9782672 170 560.5 170 C 463.0217328 170 384 162.3888416 384 153 Z" stroke-miterlimit="10"/></g><g transform="translate(-94,-14) scale(1,1)"><g><path fill="none" stroke="none"/><text fill="#000000" stroke="none" font-family="Arial" font-size="13px" font-style="normal" font-weight="bold" text-decoration="none" x="449.2509765625" y="160">Quản lý log hoạt động của người dùng</text></g></g><g transform="translate(-94,-14) scale(1,1)"><path fill="#ffffff" stroke="none" d="M 704 944 L 792 944 L 802 954 L 802 992 L 704 992 L 704 944"/></g><g transform="translate(-94,-14) scale(1,1)"><path fill="none" stroke="#000000" d="M 704 944 L 792 944 L 802 954 L 802 992 L 704 992 L 704 944 L 704 944" stroke-miterlimit="10"/></g><g transform="translate(-94,-14) scale(1,1)"><path fill="none" stroke="#000000" d="M 792 944 L 792 954 L 802 954 L 792 944" stroke-miterlimit="10"/></g><g transform="translate(-94,-14) scale(1,1)"><g><path fill="none" stroke="none"/><text fill="#000000" stroke="none" font-family="Arial" font-size="13px" font-style="normal" font-weight="normal" text-decoration="none" x="709" y="962">Coupons</text></g></g><g transform="translate(-94,-14) scale(1,1)"><g><path fill="none" stroke="none"/><text fill="#000000" stroke="none" font-family="Arial" font-size="13px" font-style="normal" font-weight="normal" text-decoration="none" x="709" y="977">Promotions</text></g></g><g transform="translate(-94,-14) scale(1,1)"><g><path fill="none" stroke="none"/></g></g><g transform="translate(-94,-14) scale(1,1)"><path fill="none" stroke="#000000" d="M 614 1023 L 703 988" stroke-miterlimit="10" stroke-dasharray="3"/></g><g transform="translate(-94,-14) scale(1,1)"><path fill="#C0C0C0" stroke="none" d="M 1255 352 C 1255 342.6111584 1277.6096176 335 1305.5 335 C 1333.3903824 335 1356 342.6111584 1356 352 C 1356 361.3888416 1333.3903824 369 1305.5 369 C 1277.6096176 369 1255 361.3888416 1255 352 Z" opacity="0.2"/></g><g transform="translate(-94,-14) scale(1,1)"><path fill="#ffffff" stroke="none" d="M 1248 345 C 1248 335.6111584 1270.6096176 328 1298.5 328 C 1326.3903824 328 1349 335.6111584 1349 345 C 1349 354.3888416 1326.3903824 362 1298.5 362 C 1270.6096176 362 1248 354.3888416 1248 345 Z"/></g><g transform="translate(-94,-14) scale(1,1)"><path fill="none" stroke="#000000" d="M 1248 345 C 1248 335.6111584 1270.6096176 328 1298.5 328 C 1326.3903824 328 1349 335.6111584 1349 345 C 1349 354.3888416 1326.3903824 362 1298.5 362 C 1270.6096176 362 1248 354.3888416 1248 345 Z" stroke-miterlimit="10"/></g><g transform="translate(-94,-14) scale(1,1)"><g><path fill="none" stroke="none"/><text fill="#000000" stroke="none" font-family="Arial" font-size="13px" font-style="normal" font-weight="bold" text-decoration="none" x="1272.119140625" y="352">Giỏ hàng</text></g></g><g transform="translate(-94,-14) scale(1,1)"><path fill="none" stroke="#000000" d="M 1734 759 L 1782 336" stroke-miterlimit="10"/></g><g transform="translate(-94,-14) scale(1,1)"><path fill="#FFFFFF" stroke="none" d="M 1788.0736340009018 357.144998700002 L 1782 336 L 1771.3429358195308 355.2464797574351"/></g><g transform="translate(-94,-14) scale(1,1)"><path fill="none" stroke="#000000" d="M 1788.0736340009018 357.144998700002 L 1782 336 L 1771.3429358195308 355.2464797574351 L 1788.0736340009018 357.144998700002" stroke-miterlimit="10"/></g><g transform="translate(-94,-14) scale(1,1)"><path fill="#C0C0C0" stroke="none" d="M 1223 792 C 1223 782.6111584 1245.6096176 775 1273.5 775 C 1301.3903824 775 1324 782.6111584 1324 792 C 1324 801.3888416 1301.3903824 809 1273.5 809 C 1245.6096176 809 1223 801.3888416 1223 792 Z" opacity="0.2"/></g><g transform="translate(-94,-14) scale(1,1)"><path fill="#ffffff" stroke="none" d="M 1216 785 C 1216 775.6111584 1238.6096176 768 1266.5 768 C 1294.3903824 768 1317 775.6111584 1317 785 C 1317 794.3888416 1294.3903824 802 1266.5 802 C 1238.6096176 802 1216 794.3888416 1216 785 Z"/></g><g transform="translate(-94,-14) scale(1,1)"><path fill="none" stroke="#000000" d="M 1216 785 C 1216 775.6111584 1238.6096176 768 1266.5 768 C 1294.3903824 768 1317 775.6111584 1317 785 C 1317 794.3888416 1294.3903824 802 1266.5 802 C 1238.6096176 802 1216 794.3888416 1216 785 Z" stroke-miterlimit="10"/></g><g transform="translate(-94,-14) scale(1,1)"><g><path fill="none" stroke="none"/><text fill="#000000" stroke="none" font-family="Arial" font-size="13px" font-style="normal" font-weight="bold" text-decoration="none" x="1240.119140625" y="792">Đặt hàng</text></g></g><g transform="translate(-94,-14) scale(1,1)"><path fill="#C0C0C0" stroke="none" d="M 1039 160 C 1039 150.6111584 1113.5445808 143 1205.5 143 C 1297.4554192 143 1372 150.6111584 1372 160 C 1372 169.3888416 1297.4554192 177 1205.5 177 C 1113.5445808 177 1039 169.3888416 1039 160 Z" opacity="0.2"/></g><g transform="translate(-94,-14) scale(1,1)"><path fill="#ffffff" stroke="none" d="M 1032 153 C 1032 143.6111584 1106.5445808 136 1198.5 136 C 1290.4554192 136 1365 143.6111584 1365 153 C 1365 162.3888416 1290.4554192 170 1198.5 170 C 1106.5445808 170 1032 162.3888416 1032 153 Z"/></g><g transform="translate(-94,-14) scale(1,1)"><path fill="none" stroke="#000000" d="M 1032 153 C 1032 143.6111584 1106.5445808 136 1198.5 136 C 1290.4554192 136 1365 143.6111584 1365 153 C 1365 162.3888416 1290.4554192 170 1198.5 170 C 1106.5445808 170 1032 162.3888416 1032 153 Z" stroke-miterlimit="10"/></g><g transform="translate(-94,-14) scale(1,1)"><g><path fill="none" stroke="none"/><text fill="#000000" stroke="none" font-family="Arial" font-size="13px" font-style="normal" font-weight="bold" text-decoration="none" x="1091.19921875" y="160">Xem và tìm kiếm nâng cao sản phẩm</text></g></g><g transform="translate(-94,-14) scale(1,1)"><path fill="#C0C0C0" stroke="none" d="M 1007 1032 C 1007 1022.6111584 1047.0705104 1015 1096.5 1015 C 1145.9294896 1015 1186 1022.6111584 1186 1032 C 1186 1041.3888416 1145.9294896 1049 1096.5 1049 C 1047.0705104 1049 1007 1041.3888416 1007 1032 Z" opacity="0.2"/></g><g transform="translate(-94,-14) scale(1,1)"><path fill="#ffffff" stroke="none" d="M 1000 1025 C 1000 1015.6111584 1040.0705104 1008 1089.5 1008 C 1138.9294896 1008 1179 1015.6111584 1179 1025 C 1179 1034.3888416 1138.9294896 1042 1089.5 1042 C 1040.0705104 1042 1000 1034.3888416 1000 1025 Z"/></g><g transform="translate(-94,-14) scale(1,1)"><path fill="none" stroke="#000000" d="M 1000 1025 C 1000 1015.6111584 1040.0705104 1008 1089.5 1008 C 1138.9294896 1008 1179 1015.6111584 1179 1025 C 1179 1034.3888416 1138.9294896 1042 1089.5 1042 C 1040.0705104 1042 1000 1034.3888416 1000 1025 Z" stroke-miterlimit="10"/></g><g transform="translate(-94,-14) scale(1,1)"><g><path fill="none" stroke="none"/><text fill="#000000" stroke="none" font-family="Arial" font-size="13px" font-style="normal" font-weight="bold" text-decoration="none" x="1034.640380859375" y="1032">Theo dõi đơn hàng</text></g></g><g transform="translate(-94,-14) scale(1,1)"><path fill="#C0C0C0" stroke="none" d="M 1279 888 C 1279 878.6111584 1309.6684912 871 1347.5 871 C 1385.3315088 871 1416 878.6111584 1416 888 C 1416 897.3888416 1385.3315088 905 1347.5 905 C 1309.6684912 905 1279 897.3888416 1279 888 Z" opacity="0.2"/></g><g transform="translate(-94,-14) scale(1,1)"><path fill="#ffffff" stroke="none" d="M 1272 881 C 1272 871.6111584 1302.6684912 864 1340.5 864 C 1378.3315088 864 1409 871.6111584 1409 881 C 1409 890.3888416 1378.3315088 898 1340.5 898 C 1302.6684912 898 1272 890.3888416 1272 881 Z"/></g><g transform="translate(-94,-14) scale(1,1)"><path fill="none" stroke="#000000" d="M 1272 881 C 1272 871.6111584 1302.6684912 864 1340.5 864 C 1378.3315088 864 1409 871.6111584 1409 881 C 1409 890.3888416 1378.3315088 898 1340.5 898 C 1302.6684912 898 1272 890.3888416 1272 881 Z" stroke-miterlimit="10"/></g><g transform="translate(-94,-14) scale(1,1)"><g><path fill="none" stroke="none"/><text fill="#000000" stroke="none" font-family="Arial" font-size="13px" font-style="normal" font-weight="bold" text-decoration="none" x="1299.376708984375" y="888">Hủy đơn hàng</text></g></g><g transform="translate(-94,-14) scale(1,1)"><path fill="#C0C0C0" stroke="none" d="M 1015 872 C 1015 862.6111584 1055.294368 855 1105 855 C 1154.705632 855 1195 862.6111584 1195 872 C 1195 881.3888416 1154.705632 889 1105 889 C 1055.294368 889 1015 881.3888416 1015 872 Z" opacity="0.2"/></g><g transform="translate(-94,-14) scale(1,1)"><path fill="#ffffff" stroke="none" d="M 1008 865 C 1008 855.6111584 1048.294368 848 1098 848 C 1147.705632 848 1188 855.6111584 1188 865 C 1188 874.3888416 1147.705632 882 1098 882 C 1048.294368 882 1008 874.3888416 1008 865 Z"/></g><g transform="translate(-94,-14) scale(1,1)"><path fill="none" stroke="#000000" d="M 1008 865 C 1008 855.6111584 1048.294368 848 1098 848 C 1147.705632 848 1188 855.6111584 1188 865 C 1188 874.3888416 1147.705632 882 1098 882 C 1048.294368 882 1008 874.3888416 1008 865 Z" stroke-miterlimit="10"/></g><g transform="translate(-94,-14) scale(1,1)"><g><path fill="none" stroke="none"/><text fill="#000000" stroke="none" font-family="Arial" font-size="13px" font-style="normal" font-weight="bold" text-decoration="none" x="1042.416748046875" y="872">Đánh giá đơn hàng</text></g></g><g transform="translate(-94,-14) scale(1,1)"><path fill="#C0C0C0" stroke="none" d="M 1191 680 C 1191 670.6111584 1241.36796 663 1303.5 663 C 1365.63204 663 1416 670.6111584 1416 680 C 1416 689.3888416 1365.63204 697 1303.5 697 C 1241.36796 697 1191 689.3888416 1191 680 Z" opacity="0.2"/></g><g transform="translate(-94,-14) scale(1,1)"><path fill="#ffffff" stroke="none" d="M 1184 673 C 1184 663.6111584 1234.36796 656 1296.5 656 C 1358.63204 656 1409 663.6111584 1409 673 C 1409 682.3888416 1358.63204 690 1296.5 690 C 1234.36796 690 1184 682.3888416 1184 673 Z"/></g><g transform="translate(-94,-14) scale(1,1)"><path fill="none" stroke="#000000" d="M 1184 673 C 1184 663.6111584 1234.36796 656 1296.5 656 C 1358.63204 656 1409 663.6111584 1409 673 C 1409 682.3888416 1358.63204 690 1296.5 690 C 1234.36796 690 1184 682.3888416 1184 673 Z" stroke-miterlimit="10"/></g><g transform="translate(-94,-14) scale(1,1)"><g><path fill="none" stroke="none"/><text fill="#000000" stroke="none" font-family="Arial" font-size="13px" font-style="normal" font-weight="bold" text-decoration="none" x="1227.846923828125" y="680">Quản lý thông tin profile</text></g></g><g transform="translate(-94,-14) scale(1,1)"><path fill="#C0C0C0" stroke="none" d="M 1175 736 C 1175 726.6111584 1228.9496816 719 1295.5 719 C 1362.0503184 719 1416 726.6111584 1416 736 C 1416 745.3888416 1362.0503184 753 1295.5 753 C 1228.9496816 753 1175 745.3888416 1175 736 Z" opacity="0.2"/></g><g transform="translate(-94,-14) scale(1,1)"><path fill="#ffffff" stroke="none" d="M 1168 729 C 1168 719.6111584 1221.9496816 712 1288.5 712 C 1355.0503184 712 1409 719.6111584 1409 729 C 1409 738.3888416 1355.0503184 746 1288.5 746 C 1221.9496816 746 1168 738.3888416 1168 729 Z"/></g><g transform="translate(-94,-14) scale(1,1)"><path fill="none" stroke="#000000" d="M 1168 729 C 1168 719.6111584 1221.9496816 712 1288.5 712 C 1355.0503184 712 1409 719.6111584 1409 729 C 1409 738.3888416 1355.0503184 746 1288.5 746 C 1221.9496816 746 1168 738.3888416 1168 729 Z" stroke-miterlimit="10"/></g><g transform="translate(-94,-14) scale(1,1)"><g><path fill="none" stroke="none"/><text fill="#000000" stroke="none" font-family="Arial" font-size="13px" font-style="normal" font-weight="bold" text-decoration="none" x="1212.972412109375" y="736">Quản lý địa chỉ nhận hàng</text></g></g><g transform="translate(-94,-14) scale(1,1)"><path fill="#C0C0C0" stroke="none" d="M 1239 1008 C 1239 998.6111584 1300.1131248 991 1375.5 991 C 1450.8868752 991 1512 998.6111584 1512 1008 C 1512 1017.3888416 1450.8868752 1025 1375.5 1025 C 1300.1131248 1025 1239 1017.3888416 1239 1008 Z" opacity="0.2"/></g><g transform="translate(-94,-14) scale(1,1)"><path fill="#ffffff" stroke="none" d="M 1232 1001 C 1232 991.6111584 1293.1131248 984 1368.5 984 C 1443.8868752 984 1505 991.6111584 1505 1001 C 1505 1010.3888416 1443.8868752 1018 1368.5 1018 C 1293.1131248 1018 1232 1010.3888416 1232 1001 Z"/></g><g transform="translate(-94,-14) scale(1,1)"><path fill="none" stroke="#000000" d="M 1232 1001 C 1232 991.6111584 1293.1131248 984 1368.5 984 C 1443.8868752 984 1505 991.6111584 1505 1001 C 1505 1010.3888416 1443.8868752 1018 1368.5 1018 C 1293.1131248 1018 1232 1010.3888416 1232 1001 Z" stroke-miterlimit="10"/></g><g transform="translate(-94,-14) scale(1,1)"><g><path fill="none" stroke="none"/><text fill="#000000" stroke="none" font-family="Arial" font-size="13px" font-style="normal" font-weight="bold" text-decoration="none" x="1282.498779296875" y="1008">Xem và sử dụng điểm tích lũy</text></g></g><g transform="translate(-94,-14) scale(1,1)"><path fill="none" stroke="#000000" d="M 1358 691 L 1647 775" stroke-miterlimit="10"/></g><g transform="translate(-94,-14) scale(1,1)"><path fill="none" stroke="#000000" d="M 1401 747 L 1647 786" stroke-miterlimit="10"/></g><g transform="translate(-94,-14) scale(1,1)"><path fill="none" stroke="#000000" d="M 1318 787 L 1647 797" stroke-miterlimit="10"/></g><g transform="translate(-94,-14) scale(1,1)"><path fill="none" stroke="#000000" d="M 1410 866 L 1647 816" stroke-miterlimit="10"/></g><g transform="translate(-94,-14) scale(1,1)"><path fill="none" stroke="#000000" d="M 1189 855 L 1647 808" stroke-miterlimit="10"/></g><g transform="translate(-94,-14) scale(1,1)"><path fill="none" stroke="#000000" d="M 1140 1007 L 1647 828" stroke-miterlimit="10"/></g><g transform="translate(-94,-14) scale(1,1)"><path fill="none" stroke="#000000" d="M 1400 983 L 1656 840" stroke-miterlimit="10"/></g><g transform="translate(-94,-14) scale(1,1)"><path fill="#C0C0C0" stroke="none" d="M 839 608 C 839 598.6111584 863.1766208 591 893 591 C 922.8233792 591 947 598.6111584 947 608 C 947 617.3888416 922.8233792 625 893 625 C 863.1766208 625 839 617.3888416 839 608 Z" opacity="0.2"/></g><g transform="translate(-94,-14) scale(1,1)"><path fill="#ffffff" stroke="none" d="M 832 601 C 832 591.6111584 856.1766208 584 886 584 C 915.8233792 584 940 591.6111584 940 601 C 940 610.3888416 915.8233792 618 886 618 C 856.1766208 618 832 610.3888416 832 601 Z"/></g><g transform="translate(-94,-14) scale(1,1)"><path fill="none" stroke="#000000" d="M 832 601 C 832 591.6111584 856.1766208 584 886 584 C 915.8233792 584 940 591.6111584 940 601 C 940 610.3888416 915.8233792 618 886 618 C 856.1766208 618 832 610.3888416 832 601 Z" stroke-miterlimit="10"/></g><g transform="translate(-94,-14) scale(1,1)"><g><path fill="none" stroke="none"/><text fill="#000000" stroke="none" font-family="Arial" font-size="13px" font-style="normal" font-weight="bold" text-decoration="none" x="854.195068359375" y="608">Đăng nhập</text></g></g><g transform="translate(-94,-14) scale(1,1)"><path fill="#C0C0C0" stroke="none" d="M 863 384 C 863 374.6111584 885.6096176 367 913.5 367 C 941.3903824 367 964 374.6111584 964 384 C 964 393.3888416 941.3903824 401 913.5 401 C 885.6096176 401 863 393.3888416 863 384 Z" opacity="0.2"/></g><g transform="translate(-94,-14) scale(1,1)"><path fill="#ffffff" stroke="none" d="M 856 377 C 856 367.6111584 878.6096176 360 906.5 360 C 934.3903824 360 957 367.6111584 957 377 C 957 386.3888416 934.3903824 394 906.5 394 C 878.6096176 394 856 386.3888416 856 377 Z"/></g><g transform="translate(-94,-14) scale(1,1)"><path fill="none" stroke="#000000" d="M 856 377 C 856 367.6111584 878.6096176 360 906.5 360 C 934.3903824 360 957 367.6111584 957 377 C 957 386.3888416 934.3903824 394 906.5 394 C 878.6096176 394 856 386.3888416 856 377 Z" stroke-miterlimit="10"/></g><g transform="translate(-94,-14) scale(1,1)"><g><path fill="none" stroke="none"/><text fill="#000000" stroke="none" font-family="Arial" font-size="13px" font-style="normal" font-weight="bold" text-decoration="none" x="882.655029296875" y="384">Đăng ký</text></g></g><g transform="translate(-94,-14) scale(1,1)"><path fill="#C0C0C0" stroke="none" d="M 1215 552 C 1215 542.6111584 1243.6537728 535 1279 535 C 1314.3462272 535 1343 542.6111584 1343 552 C 1343 561.3888416 1314.3462272 569 1279 569 C 1243.6537728 569 1215 561.3888416 1215 552 Z" opacity="0.2"/></g><g transform="translate(-94,-14) scale(1,1)"><path fill="#ffffff" stroke="none" d="M 1208 545 C 1208 535.6111584 1236.6537728 528 1272 528 C 1307.3462272 528 1336 535.6111584 1336 545 C 1336 554.3888416 1307.3462272 562 1272 562 C 1236.6537728 562 1208 554.3888416 1208 545 Z"/></g><g transform="translate(-94,-14) scale(1,1)"><path fill="none" stroke="#000000" d="M 1208 545 C 1208 535.6111584 1236.6537728 528 1272 528 C 1307.3462272 528 1336 535.6111584 1336 545 C 1336 554.3888416 1307.3462272 562 1272 562 C 1236.6537728 562 1208 554.3888416 1208 545 Z" stroke-miterlimit="10"/></g><g transform="translate(-94,-14) scale(1,1)"><g><path fill="none" stroke="none"/><text fill="#000000" stroke="none" font-family="Arial" font-size="13px" font-style="normal" font-weight="bold" text-decoration="none" x="1233.682373046875" y="552">Tự design áo</text></g></g><g transform="translate(-94,-14) scale(1,1)"><path fill="#C0C0C0" stroke="none" d="M 1247 632 C 1247 622.6111584 1281.4740704 615 1324 615 C 1366.5259296 615 1401 622.6111584 1401 632 C 1401 641.3888416 1366.5259296 649 1324 649 C 1281.4740704 649 1247 641.3888416 1247 632 Z" opacity="0.2"/></g><g transform="translate(-94,-14) scale(1,1)"><path fill="#ffffff" stroke="none" d="M 1240 625 C 1240 615.6111584 1274.4740704 608 1317 608 C 1359.5259296 608 1394 615.6111584 1394 625 C 1394 634.3888416 1359.5259296 642 1317 642 C 1274.4740704 642 1240 634.3888416 1240 625 Z"/></g><g transform="translate(-94,-14) scale(1,1)"><path fill="none" stroke="#000000" d="M 1240 625 C 1240 615.6111584 1274.4740704 608 1317 608 C 1359.5259296 608 1394 615.6111584 1394 625 C 1394 634.3888416 1359.5259296 642 1317 642 C 1274.4740704 642 1240 634.3888416 1240 625 Z" stroke-miterlimit="10"/></g><g transform="translate(-94,-14) scale(1,1)"><g><path fill="none" stroke="none"/><text fill="#000000" stroke="none" font-family="Arial" font-size="13px" font-style="normal" font-weight="bold" text-decoration="none" x="1270.458984375" y="632">Liên hệ &amp; hỗ trợ</text></g></g><g transform="translate(-94,-14) scale(1,1)"><path fill="none" stroke="#000000" d="M 1304 563 L 1657 759" stroke-miterlimit="10"/></g><g transform="translate(-94,-14) scale(1,1)"><path fill="none" stroke="#000000" d="M 1360 643 L 1647 764" stroke-miterlimit="10"/></g><g transform="translate(-94,-14) scale(1,1)"><path fill="none" stroke="#000000" d="M 1207 554 L 941 593" stroke-miterlimit="10" stroke-dasharray="3"/></g><g transform="translate(-94,-14) scale(1,1)"><path fill="none" stroke="#000000" d="M 950.4445180543024 587.3607554830496 L 941 593 L 951.6658307999407 595.6907347225314" stroke-miterlimit="10"/></g><g transform="translate(-94,-14) scale(1,1)"><g><path fill="none" stroke="none"/><text fill="#000000" stroke="none" font-family="Arial" font-size="13px" font-style="normal" font-weight="normal" text-decoration="none" x="1050.5" y="608.5">«include»</text></g></g><g transform="translate(-94,-14) scale(1,1)"><path fill="none" stroke="#000000" d="M 1239 621 L 941 604" stroke-miterlimit="10" stroke-dasharray="3"/></g><g transform="translate(-94,-14) scale(1,1)"><path fill="none" stroke="#000000" d="M 951.3859290941804 600.3761240569444 L 941 604 L 950.906428144931 608.7814936379042" stroke-miterlimit="10"/></g><g transform="translate(-94,-14) scale(1,1)"><g><path fill="none" stroke="none"/><text fill="#000000" stroke="none" font-family="Arial" font-size="13px" font-style="normal" font-weight="normal" text-decoration="none" x="1060.5" y="647.5">«include»</text></g></g><g transform="translate(-94,-14) scale(1,1)"><path fill="none" stroke="#000000" d="M 1194 655 L 941 611" stroke-miterlimit="10" stroke-dasharray="3"/></g><g transform="translate(-94,-14) scale(1,1)"><path fill="none" stroke="#000000" d="M 951.7336504475937 608.5940182733711 L 941 611 L 950.2911230126897 616.8885510240693" stroke-miterlimit="10"/></g><g transform="translate(-94,-14) scale(1,1)"><g><path fill="none" stroke="none"/><text fill="#000000" stroke="none" font-family="Arial" font-size="13px" font-style="normal" font-weight="normal" text-decoration="none" x="1033.5" y="668.5">«include»</text></g></g><g transform="translate(-94,-14) scale(1,1)"><path fill="none" stroke="#000000" d="M 1231 711 L 941 619" stroke-miterlimit="10" stroke-dasharray="3"/></g><g transform="translate(-94,-14) scale(1,1)"><path fill="none" stroke="#000000" d="M 951.9598176288694 618.0606398231116 L 941 619 L 949.4139893169958 626.085533414887" stroke-miterlimit="10"/></g><g transform="translate(-94,-14) scale(1,1)"><g><path fill="none" stroke="none"/><text fill="#000000" stroke="none" font-family="Arial" font-size="13px" font-style="normal" font-weight="normal" text-decoration="none" x="1048.5" y="699.5">«include»</text></g></g><g transform="translate(-94,-14) scale(1,1)"><path fill="none" stroke="#000000" d="M 1229 767 L 923 619" stroke-miterlimit="10" stroke-dasharray="3"/></g><g transform="translate(-94,-14) scale(1,1)"><path fill="none" stroke="#000000" d="M 933.9816359646069 619.6353515096794 L 923 619 L 930.3159278981643 627.214450620027" stroke-miterlimit="10"/></g><g transform="translate(-94,-14) scale(1,1)"><g><path fill="none" stroke="none"/><text fill="#000000" stroke="none" font-family="Arial" font-size="13px" font-style="normal" font-weight="normal" text-decoration="none" x="1034.5" y="726.5">«include»</text></g></g><g transform="translate(-94,-14) scale(1,1)"><path fill="none" stroke="#000000" d="M 1080 1007 L 895 619" stroke-miterlimit="10" stroke-dasharray="3"/></g><g transform="translate(-94,-14) scale(1,1)"><path fill="none" stroke="#000000" d="M 903.1735651201333 626.3615781750207 L 895 619 L 895.574161475124 629.9850051707081" stroke-miterlimit="10"/></g><g transform="translate(-94,-14) scale(1,1)"><g><path fill="none" stroke="none"/><text fill="#000000" stroke="none" font-family="Arial" font-size="13px" font-style="normal" font-weight="normal" text-decoration="none" x="931.5" y="831.5">«include»</text></g></g><g transform="translate(-94,-14) scale(1,1)"><path fill="none" stroke="#000000" d="M 1346 983 L 908 619" stroke-miterlimit="10" stroke-dasharray="3"/></g><g transform="translate(-94,-14) scale(1,1)"><path fill="none" stroke="#000000" d="M 918.5064549864346 622.2579753863438 L 908 619 L 913.1254490785166 628.7329220557617" stroke-miterlimit="10"/></g><g transform="translate(-94,-14) scale(1,1)"><g><path fill="none" stroke="none"/><text fill="#000000" stroke="none" font-family="Arial" font-size="13px" font-style="normal" font-weight="normal" text-decoration="none" x="1079.5" y="830.5">«include»</text></g></g><g transform="translate(-94,-14) scale(1,1)"><path fill="none" stroke="#000000" d="M 1228 803 L 1136 847" stroke-miterlimit="10" stroke-dasharray="3"/></g><g transform="translate(-94,-14) scale(1,1)"><path fill="none" stroke="#000000" d="M 1143.351877195587 838.81770804108 L 1136 847 L 1146.9843163492508 846.4128080896497" stroke-miterlimit="10"/></g><g transform="translate(-94,-14) scale(1,1)"><g><path fill="none" stroke="none"/><text fill="#000000" stroke="none" font-family="Arial" font-size="13px" font-style="normal" font-weight="normal" text-decoration="none" x="1137.5" y="817.5">«include»</text></g></g><g transform="translate(-94,-14) scale(1,1)"><path fill="none" stroke="#000000" d="M 1280 803 L 1326 863" stroke-miterlimit="10" stroke-dasharray="3"/></g><g transform="translate(-94,-14) scale(1,1)"><path fill="none" stroke="#000000" d="M 1316.4760079795446 857.496039971593 L 1326 863 L 1323.1574081178358 852.3736331989031" stroke-miterlimit="10"/></g><g transform="translate(-94,-14) scale(1,1)"><g><path fill="none" stroke="none"/><text fill="#000000" stroke="none" font-family="Arial" font-size="13px" font-style="normal" font-weight="normal" text-decoration="none" x="1298.5" y="820.5">«include»</text></g></g><g transform="translate(-94,-14) scale(1,1)"><path fill="#C0C0C0" stroke="none" d="M 1183 264 C 1183 254.6111584 1229.5623808 247 1287 247 C 1344.4376192 247 1391 254.6111584 1391 264 C 1391 273.3888416 1344.4376192 281 1287 281 C 1229.5623808 281 1183 273.3888416 1183 264 Z" opacity="0.2"/></g><g transform="translate(-94,-14) scale(1,1)"><path fill="#ffffff" stroke="none" d="M 1176 257 C 1176 247.6111584 1222.5623808 240 1280 240 C 1337.4376192 240 1384 247.6111584 1384 257 C 1384 266.3888416 1337.4376192 274 1280 274 C 1222.5623808 274 1176 266.3888416 1176 257 Z"/></g><g transform="translate(-94,-14) scale(1,1)"><path fill="none" stroke="#000000" d="M 1176 257 C 1176 247.6111584 1222.5623808 240 1280 240 C 1337.4376192 240 1384 247.6111584 1384 257 C 1384 266.3888416 1337.4376192 274 1280 274 C 1222.5623808 274 1176 266.3888416 1176 257 Z" stroke-miterlimit="10"/></g><g transform="translate(-94,-14) scale(1,1)"><g><path fill="none" stroke="none"/><text fill="#000000" stroke="none" font-family="Arial" font-size="13px" font-style="normal" font-weight="bold" text-decoration="none" x="1214.9619140625" y="264">Xem bản tin sản phẩm</text></g></g><g transform="translate(-94,-14) scale(1,1)"><path fill="none" stroke="#000000" d="M 1350 340 L 1719 302" stroke-miterlimit="10"/></g><g transform="translate(-94,-14) scale(1,1)"><path fill="none" stroke="#000000" d="M 1385 265 L 1719 290" stroke-miterlimit="10"/></g><g transform="translate(-94,-14) scale(1,1)"><path fill="none" stroke="#000000" d="M 1273 171 L 1719 279" stroke-miterlimit="10"/></g><g transform="translate(-94,-14) scale(1,1)"><path fill="none" stroke="#000000" d="M 1259 275 L 907 583" stroke-miterlimit="10" stroke-dasharray="3"/></g><g transform="translate(-94,-14) scale(1,1)"><path fill="none" stroke="#000000" d="M 911.8762054144906 573.1398468188526 L 907 583 L 917.4201790929724 579.4758167371174" stroke-miterlimit="10"/></g><g transform="translate(-94,-14) scale(1,1)"><g><path fill="none" stroke="none"/><text fill="#000000" stroke="none" font-family="Arial" font-size="13px" font-style="normal" font-weight="normal" text-decoration="none" x="1075.5" y="457.5">«extend»</text></g></g><g transform="translate(-94,-14) scale(1,1)"><path fill="none" stroke="#000000" d="M 1269 363 L 915 583" stroke-miterlimit="10" stroke-dasharray="3"/></g><g transform="translate(-94,-14) scale(1,1)"><path fill="none" stroke="#000000" d="M 921.4096472499791 574.0604014558351 L 915 583 L 925.8535557871384 581.2110542838095" stroke-miterlimit="10"/></g><g transform="translate(-94,-14) scale(1,1)"><g><path fill="none" stroke="none"/><text fill="#000000" stroke="none" font-family="Arial" font-size="13px" font-style="normal" font-weight="normal" text-decoration="none" x="1080.5" y="504.5">«extend»</text></g></g><g transform="translate(-94,-14) scale(1,1)"><path fill="none" stroke="#000000" d="M 1185 171 L 899 583" stroke-miterlimit="10" stroke-dasharray="3"/></g><g transform="translate(-94,-14) scale(1,1)"><path fill="none" stroke="#000000" d="M 901.3372198024995 572.2511673380407 L 899 583 L 908.2532364365818 577.05209150636" stroke-miterlimit="10"/></g><g transform="translate(-94,-14) scale(1,1)"><g><path fill="none" stroke="none"/><text fill="#000000" stroke="none" font-family="Arial" font-size="13px" font-style="normal" font-weight="normal" text-decoration="none" x="1039.5" y="400.5">«extend»</text></g></g><g transform="translate(-94,-14) scale(1,1)"><path fill="none" stroke="#000000" d="M 664 621 L 831 606" stroke-miterlimit="10" stroke-dasharray="3"/></g><g transform="translate(-94,-14) scale(1,1)"><path fill="none" stroke="#000000" d="M 821.2546578037889 611.1017943391269 L 831 606 L 820.50148907466 602.7165158214915" stroke-miterlimit="10"/></g><g transform="translate(-94,-14) scale(1,1)"><g><path fill="none" stroke="none"/><text fill="#000000" stroke="none" font-family="Arial" font-size="13px" font-style="normal" font-weight="normal" text-decoration="none" x="716.5" y="589.5">«include»</text></g></g><g transform="translate(-94,-14) scale(1,1)"><path fill="none" stroke="#000000" d="M 533 751 L 844 619" stroke-miterlimit="10" stroke-dasharray="3"/></g><g transform="translate(-94,-14) scale(1,1)"><path fill="none" stroke="#000000" d="M 836.289748681416 626.8455098371154 L 844 619 L 833.0004158002868 619.0956422156668" stroke-miterlimit="10"/></g><g transform="translate(-94,-14) scale(1,1)"><g><path fill="none" stroke="none"/><text fill="#000000" stroke="none" font-family="Arial" font-size="13px" font-style="normal" font-weight="normal" text-decoration="none" x="648.5" y="663.5">«include»</text></g></g><g transform="translate(-94,-14) scale(1,1)"><path fill="none" stroke="#000000" d="M 547 935 L 868 619" stroke-miterlimit="10" stroke-dasharray="3"/></g><g transform="translate(-94,-14) scale(1,1)"><path fill="none" stroke="#000000" d="M 863.7108445540564 629.129321080928 L 868 619 L 857.80459747347 623.1296207237501" stroke-miterlimit="10"/></g><g transform="translate(-94,-14) scale(1,1)"><g><path fill="none" stroke="none"/><text fill="#000000" stroke="none" font-family="Arial" font-size="13px" font-style="normal" font-weight="normal" text-decoration="none" x="657.5" y="761.5">«include»</text></g></g><g transform="translate(-94,-14) scale(1,1)"><path fill="none" stroke="#000000" d="M 582 1023 L 873 619" stroke-miterlimit="10" stroke-dasharray="3"/></g><g transform="translate(-94,-14) scale(1,1)"><path fill="none" stroke="#000000" d="M 870.4759751110927 629.7065072904368 L 873 619 L 863.644600977279 624.7858887930611" stroke-miterlimit="10"/></g><g transform="translate(-94,-14) scale(1,1)"><g><path fill="none" stroke="none"/><text fill="#000000" stroke="none" font-family="Arial" font-size="13px" font-style="normal" font-weight="normal" text-decoration="none" x="674.5" y="809.5">«include»</text></g></g><g transform="translate(-94,-14) scale(1,1)"><path fill="none" stroke="#000000" d="M 559 679 L 831 614" stroke-miterlimit="10" stroke-dasharray="3"/></g><g transform="translate(-94,-14) scale(1,1)"><path fill="none" stroke="#000000" d="M 822.094041687988 620.4563075007859 L 831 614 L 820.1372376693803 612.267835299843" stroke-miterlimit="10"/></g><g transform="translate(-94,-14) scale(1,1)"><g><path fill="none" stroke="none"/><text fill="#000000" stroke="none" font-family="Arial" font-size="13px" font-style="normal" font-weight="normal" text-decoration="none" x="660.5" y="622.5">«include»</text></g></g><g transform="translate(-94,-14) scale(1,1)"><path fill="#C0C0C0" stroke="none" d="M 351 592 C 351 582.6111584 403.38267840000003 575 468 575 C 532.6173216 575 585 582.6111584 585 592 C 585 601.3888416 532.6173216 609 468 609 C 403.38267840000003 609 351 601.3888416 351 592 Z" opacity="0.2"/></g><g transform="translate(-94,-14) scale(1,1)"><path fill="#ffffff" stroke="none" d="M 344 585 C 344 575.6111584 396.38267840000003 568 461 568 C 525.6173216 568 578 575.6111584 578 585 C 578 594.3888416 525.6173216 602 461 602 C 396.38267840000003 602 344 594.3888416 344 585 Z"/></g><g transform="translate(-94,-14) scale(1,1)"><path fill="none" stroke="#000000" d="M 344 585 C 344 575.6111584 396.38267840000003 568 461 568 C 525.6173216 568 578 575.6111584 578 585 C 578 594.3888416 525.6173216 602 461 602 C 396.38267840000003 602 344 594.3888416 344 585 Z" stroke-miterlimit="10"/></g><g transform="translate(-94,-14) scale(1,1)"><g><path fill="none" stroke="none"/><text fill="#000000" stroke="none" font-family="Arial" font-size="13px" font-style="normal" font-weight="bold" text-decoration="none" x="391.2646484375" y="592">Quản lý các bản thiết kế</text></g></g><g transform="translate(-94,-14) scale(1,1)"><path fill="none" stroke="#000000" d="M 201 771 L 436 603" stroke-miterlimit="10"/></g><g transform="translate(-94,-14) scale(1,1)"><path fill="none" stroke="#000000" d="M 209 298 L 517 171" stroke-miterlimit="10"/></g><g transform="translate(-94,-14) scale(1,1)"><path fill="none" stroke="#000000" d="M 579 589 L 831 599" stroke-miterlimit="10" stroke-dasharray="3"/></g><g transform="translate(-94,-14) scale(1,1)"><path fill="none" stroke="#000000" d="M 820.6784043189707 602.8032436941849 L 831 599 L 821.0122302946153 594.3908291079415" stroke-miterlimit="10"/></g><g transform="translate(-94,-14) scale(1,1)"><g><path fill="none" stroke="none"/><text fill="#000000" stroke="none" font-family="Arial" font-size="13px" font-style="normal" font-weight="normal" text-decoration="none" x="678.5" y="570.5">«include»</text></g></g><g transform="translate(-94,-14) scale(1,1)"><path fill="#C0C0C0" stroke="none" d="M 351 440 C 351 430.6111584 392.6375136 423 444 423 C 495.3624864 423 537 430.6111584 537 440 C 537 449.3888416 495.3624864 457 444 457 C 392.6375136 457 351 449.3888416 351 440 Z" opacity="0.2"/></g><g transform="translate(-94,-14) scale(1,1)"><path fill="#ffffff" stroke="none" d="M 344 433 C 344 423.6111584 385.6375136 416 437 416 C 488.3624864 416 530 423.6111584 530 433 C 530 442.3888416 488.3624864 450 437 450 C 385.6375136 450 344 442.3888416 344 433 Z"/></g><g transform="translate(-94,-14) scale(1,1)"><path fill="none" stroke="#000000" d="M 344 433 C 344 423.6111584 385.6375136 416 437 416 C 488.3624864 416 530 423.6111584 530 433 C 530 442.3888416 488.3624864 450 437 450 C 385.6375136 450 344 442.3888416 344 433 Z" stroke-miterlimit="10"/></g><g transform="translate(-94,-14) scale(1,1)"><g><path fill="none" stroke="none"/><text fill="#000000" stroke="none" font-family="Arial" font-size="13px" font-style="normal" font-weight="bold" text-decoration="none" x="379.963134765625" y="440">Xử lý hủy đơn hàng</text></g></g><g transform="translate(-94,-14) scale(1,1)"><path fill="#C0C0C0" stroke="none" d="M 375 504 C 375 494.6111584 405.4446336 487 443 487 C 480.5553664 487 511 494.6111584 511 504 C 511 513.3888416 480.5553664 521 443 521 C 405.4446336 521 375 513.3888416 375 504 Z" opacity="0.2"/></g><g transform="translate(-94,-14) scale(1,1)"><path fill="#ffffff" stroke="none" d="M 368 497 C 368 487.6111584 398.4446336 480 436 480 C 473.5553664 480 504 487.6111584 504 497 C 504 506.3888416 473.5553664 514 436 514 C 398.4446336 514 368 506.3888416 368 497 Z"/></g><g transform="translate(-94,-14) scale(1,1)"><path fill="none" stroke="#000000" d="M 368 497 C 368 487.6111584 398.4446336 480 436 480 C 473.5553664 480 504 487.6111584 504 497 C 504 506.3888416 473.5553664 514 436 514 C 398.4446336 514 368 506.3888416 368 497 Z" stroke-miterlimit="10"/></g><g transform="translate(-94,-14) scale(1,1)"><g><path fill="none" stroke="none"/><text fill="#000000" stroke="none" font-family="Arial" font-size="13px" font-style="normal" font-weight="bold" text-decoration="none" x="395.156005859375" y="504">Xử lý trả hàng</text></g></g><g transform="translate(-94,-14) scale(1,1)"><path fill="none" stroke="#000000" d="M 182 767 L 423 451" stroke-miterlimit="10"/></g><g transform="translate(-94,-14) scale(1,1)"><path fill="none" stroke="#000000" d="M 189 767 L 420 515" stroke-miterlimit="10"/></g><g transform="translate(-94,-14) scale(1,1)"><path fill="none" stroke="#000000" d="M 485 451 L 838 583" stroke-miterlimit="10" stroke-dasharray="3"/></g><g transform="translate(-94,-14) scale(1,1)"><path fill="none" stroke="#000000" d="M 827.0066830647853 583.3833833093943 L 838 583 L 829.9554581095103 575.4976439852433" stroke-miterlimit="10"/></g><g transform="translate(-94,-14) scale(1,1)"><g><path fill="none" stroke="none"/><text fill="#000000" stroke="none" font-family="Arial" font-size="13px" font-style="normal" font-weight="normal" text-decoration="none" x="643.5" y="494.5">«include»</text></g></g><g transform="translate(-94,-14) scale(1,1)"><path fill="none" stroke="#000000" d="M 505 513 L 831 588" stroke-miterlimit="10" stroke-dasharray="3"/></g><g transform="translate(-94,-14) scale(1,1)"><path fill="none" stroke="#000000" d="M 820.1522525272655 589.8238351810902 L 831 588 L 822.0398379771148 581.6191304257457" stroke-miterlimit="10"/></g><g transform="translate(-94,-14) scale(1,1)"><g><path fill="none" stroke="none"/><text fill="#000000" stroke="none" font-family="Arial" font-size="13px" font-style="normal" font-weight="normal" text-decoration="none" x="646.5" y="526.5">«include»</text></g></g></g></svg>